<?xml version="1.0" encoding="utf-8"?>
<!-- Generator: Adobe Illustrator 25.4.1, SVG Export Plug-In . SVG Version: 6.00 Build 0)  -->
<svg version="1.1" id="레이어_1" 
  xmlns="http://www.w3.org/2000/svg" 
  xmlns:xlink="http://www.w3.org/1999/xlink" 
  viewBox="0 -30.5 51 51" 
  style="enable-background:new 0 0 50 50;" 
  xml:space="preserve"
  width="51"
  height="51">

<style type="text/css">

</style>
<path
  id="path22"
  style="fill:#e60013;fill-opacity:1;fill-rule:nonzero;stroke:none"
  d="m 0,0 c 0,-0.692 0.105,-1.391 0.373,-2.053 1.21,-2.988 4.266,-4.819 8.145,-3.263 0.933,0.374 26.689,10.743 26.689,10.743 0,0 -10.145,-25.703 -10.52,-26.664 -1.483,-3.683 0.292,-7.021 3.32,-8.142 0.671,-0.241 1.36,-0.361 2.048,-0.354 2.45,0.015 4.63,1.46 5.688,4.361 0.167,0.441 12.843,35.256 13.132,36.103 0.159,0.49 0.457,1.657 0.463,2.464 0.003,1.723 -0.639,3.352 -1.868,4.569 -1.225,1.219 -2.821,1.848 -4.525,1.844 -0.82,0 -1.497,-0.151 -2.515,-0.477 C 39.817,18.941 7.121,6.771 4.332,5.725 1.532,4.683 -0.008,2.455 0,0" />
</svg>
