<?xml version="1.0" encoding="utf-8"?>
<!-- Generator: Adobe Illustrator 25.4.1, SVG Export Plug-In . SVG Version: 6.00 Build 0)  -->
<svg version="1.1" id="레이어_1" 
  xmlns="http://www.w3.org/2000/svg" 
  xmlns:xlink="http://www.w3.org/1999/xlink" 
  x="0px"
  y="0px"
  viewBox="0 0 51 51" 
  style="enable-background:new 0 0 283.5 50;" 
  xml:space="preserve"
  width="51"
  height="51">

<style type="text/css">

</style>
  <g>
    <path fill="#DA291C" d="M2.9,20.5c0,6.1,5,11.1,11.1,11.1c6.1,0,11.1-5,11.1-11.1c0,0,0-4,0-5.3c0-2.1,2.3-5.8,7.7-5.8
      c7.3,0,16.3,8,16.3,17.6c0,6.9-2.8,11.6-4.4,13.6c3.4-4.2,5.5-9.7,5.5-15.5C50.1,11.2,39.3,0,25,0C18.5,0,12.5,2.5,8,6.6
      C2,12.6,2.9,20.5,2.9,20.5z"/>
    <path fill="#003087" d="M47.2,29.5c0-6.1-5-11.1-11.1-11.1c-6.1,0-11.1,5-11.1,11.1c0,0,0,4,0,5.3c0,2.1-2.3,5.8-7.7,5.8
      c-7.3,0-16.3-8-16.3-17.6c0-6.9,2.8-11.6,4.4-13.6C2.1,13.6,0,19.1,0,24.9C0,38.8,10.8,50,25.1,50c6.5,0,12.5-2.5,17-6.6
      C48.1,37.4,47.2,29.5,47.2,29.5z"/>
  </g>
</svg>
