<?xml version="1.0" encoding="UTF-8" standalone="no"?>
<!-- Created with Inkscape (http://www.inkscape.org/) -->

<svg
   version="1.1"
   id="svg2"
   xml:space="preserve"
   width="590.66669"
   height="345.33334"
   viewBox="0 0 590.66669 345.33334"
   sodipodi:docname="puppylinklogo-2-white.ai"
   xmlns:inkscape="http://www.inkscape.org/namespaces/inkscape"
   xmlns:sodipodi="http://sodipodi.sourceforge.net/DTD/sodipodi-0.dtd"
   xmlns="http://www.w3.org/2000/svg"
   xmlns:svg="http://www.w3.org/2000/svg"><defs
     id="defs6"><clipPath
       clipPathUnits="userSpaceOnUse"
       id="clipPath16"><path
         d="M 0,259 H 443 V 0 H 0 Z"
         id="path14" /></clipPath><clipPath
       clipPathUnits="userSpaceOnUse"
       id="clipPath60"><path
         d="M 0,259 H 443 V 0 H 0 Z"
         id="path58" /></clipPath></defs><sodipodi:namedview
     id="namedview4"
     pagecolor="#ffffff"
     bordercolor="#666666"
     borderopacity="1.0"
     inkscape:pageshadow="2"
     inkscape:pageopacity="0.0"
     inkscape:pagecheckerboard="0" /><g
     id="g8"
     inkscape:groupmode="layer"
     inkscape:label="puppylinklogo-2-white"
     transform="matrix(1.3333333,0,0,-1.3333333,0,345.33333)"><g
       id="g10"><g
         id="g12"
         clip-path="url(#clipPath16)"><g
           id="g18"
           transform="translate(116.1096,161.3935)"><path
             d="m 0,0 c 3.353,0.978 5.827,2.894 7.479,5.801 1.646,2.905 1.883,6.754 0.642,11.565 -1.241,4.805 -3.34,8.062 -6.35,9.721 -3.007,1.658 -6.344,1.974 -9.944,0.924 -1.65,-0.482 -3.298,-0.973 -4.943,-1.475 2.837,-9.304 5.674,-18.607 8.511,-27.91 C -3.072,-0.907 -1.537,-0.449 0,0 m -15.632,-28.9 c -0.13,0.361 -0.259,0.722 -0.39,1.084 1.198,0.43 2.067,0.873 2.61,1.336 0.541,0.461 0.873,0.982 0.994,1.567 0.121,0.582 0.069,1.284 -0.153,2.1 -0.224,0.817 -0.517,1.757 -0.885,2.822 -4.175,12.097 -8.351,24.195 -12.526,36.292 -0.383,1.112 -0.74,2.045 -1.065,2.8 -0.326,0.753 -0.737,1.316 -1.229,1.688 -0.493,0.369 -1.138,0.551 -1.934,0.544 -0.796,-0.009 -1.877,-0.255 -3.238,-0.745 -0.13,0.362 -0.261,0.723 -0.391,1.085 8.311,2.992 16.691,5.719 25.128,8.181 5.182,1.512 9.69,2.335 13.475,2.545 3.785,0.207 6.948,-0.15 9.476,-1.027 2.528,-0.878 4.487,-2.21 5.881,-3.97 1.393,-1.762 2.362,-3.921 2.921,-6.47 0.559,-2.551 0.586,-4.916 0.104,-7.095 C 22.663,11.656 21.541,9.634 19.795,7.752 18.048,5.868 15.596,4.158 12.441,2.58 9.285,1 5.321,-0.448 0.538,-1.843 c -1.53,-0.446 -3.057,-0.902 -4.583,-1.367 1.269,-4.162 2.538,-8.324 3.808,-12.486 0.327,-1.078 0.642,-2.011 0.942,-2.803 0.298,-0.792 0.669,-1.389 1.109,-1.79 0.439,-0.402 1.027,-0.626 1.76,-0.672 0.733,-0.049 1.682,0.099 2.845,0.437 0.107,-0.368 0.214,-0.737 0.321,-1.105 -7.512,-2.184 -14.973,-4.607 -22.372,-7.271"
             style="fill:#ffffff;fill-opacity:1;fill-rule:nonzero;stroke:none"
             id="path20" /></g><g
           id="g22"
           transform="translate(150.3195,181.0174)"><path
             d="m 0,0 c -0.644,-0.124 -1.387,-0.517 -2.224,-1.178 -0.838,-0.663 -1.641,-1.491 -2.402,-2.482 -0.196,0.951 -0.081,1.942 0.347,2.97 0.43,1.027 1.07,2.005 1.926,2.93 0.857,0.925 1.938,1.735 3.247,2.424 1.308,0.687 2.707,1.165 4.19,1.427 1.304,0.231 2.625,0.276 3.96,0.136 1.333,-0.141 2.545,-0.477 3.628,-1.004 1.083,-0.528 1.994,-1.242 2.733,-2.139 0.738,-0.897 1.199,-1.98 1.391,-3.245 0.952,-6.328 1.904,-12.655 2.856,-18.983 0.259,-1.722 0.676,-3.173 1.245,-4.356 0.57,-1.184 1.211,-2.136 1.929,-2.859 0.717,-0.724 1.48,-1.223 2.293,-1.497 0.813,-0.274 1.597,-0.361 2.357,-0.26 0.866,0.116 1.641,0.409 2.327,0.883 0.686,0.473 1.289,1.052 1.817,1.734 0.527,0.683 0.981,1.419 1.362,2.211 0.379,0.79 0.67,1.533 0.872,2.226 -0.865,7.604 -1.731,15.207 -2.597,22.811 -0.109,0.966 -0.414,1.679 -0.914,2.137 -0.5,0.457 -1.076,0.648 -1.724,0.571 C 27.971,4.379 27.202,4.04 26.323,3.441 25.443,2.839 24.587,2.07 23.76,1.135 c -0.127,0.963 0.055,1.944 0.554,2.938 0.5,0.994 1.205,1.924 2.123,2.786 0.915,0.861 2.048,1.592 3.4,2.186 1.352,0.592 2.776,0.97 4.27,1.126 1.313,0.137 2.632,0.088 3.95,-0.146 1.317,-0.235 2.498,-0.656 3.54,-1.259 1.042,-0.603 1.899,-1.38 2.57,-2.327 0.673,-0.947 1.057,-2.061 1.156,-3.336 0.612,-7.782 1.225,-15.564 1.838,-23.347 0.075,-0.97 0.323,-1.631 0.737,-1.983 0.414,-0.354 0.895,-0.51 1.445,-0.469 0.714,0.052 1.492,0.351 2.341,0.895 0.847,0.545 1.689,1.252 2.525,2.123 0.058,-0.971 -0.175,-1.933 -0.694,-2.889 -0.519,-0.955 -1.234,-1.835 -2.137,-2.64 -0.905,-0.807 -1.977,-1.474 -3.218,-2.006 -1.243,-0.533 -2.564,-0.86 -3.972,-0.984 -1.895,-0.168 -3.719,0.068 -5.483,0.71 -1.766,0.641 -3.071,1.731 -3.911,3.286 -1.151,-2.088 -2.639,-3.704 -4.471,-4.862 -1.83,-1.16 -3.949,-1.905 -6.367,-2.253 -2.206,-0.317 -4.297,-0.276 -6.295,0.128 -1.998,0.405 -3.786,1.062 -5.369,1.982 -1.583,0.919 -2.9,2.059 -3.94,3.43 -1.043,1.369 -1.715,2.832 -2.006,4.392 C 5.173,-15.094 4.001,-8.803 2.829,-2.513 2.652,-1.558 2.296,-0.867 1.764,-0.447 1.231,-0.026 0.642,0.123 0,0"
             style="fill:#ffffff;fill-opacity:1;fill-rule:nonzero;stroke:none"
             id="path24" /></g><g
           id="g26"
           transform="translate(227.7966,159.1099)"><path
             d="m 0,0 c 0.877,-0.768 1.837,-1.49 2.87,-2.163 1.034,-0.675 2.254,-1.021 3.673,-1.047 0.928,-0.017 1.817,0.194 2.677,0.632 0.858,0.439 1.621,1.288 2.294,2.548 0.671,1.258 1.243,3.018 1.715,5.282 0.47,2.262 0.779,5.235 0.914,8.918 0.139,3.734 0.047,6.772 -0.278,9.115 -0.327,2.341 -0.799,4.177 -1.407,5.501 -0.612,1.326 -1.33,2.23 -2.152,2.712 -0.822,0.483 -1.684,0.733 -2.578,0.75 C 6.773,32.267 5.903,32.088 5.124,31.715 4.343,31.341 3.64,30.861 3.011,30.279 2.383,29.695 1.815,29.046 1.31,28.331 0.805,27.615 0.378,26.9 0.023,26.184 0.015,17.456 0.007,8.728 0,0 m -21.601,26.011 c -0.052,0.97 0.193,1.932 0.739,2.882 0.545,0.95 1.292,1.819 2.243,2.605 0.95,0.785 2.047,1.42 3.288,1.901 1.241,0.478 2.525,0.738 3.844,0.774 1.259,0.034 2.435,-0.145 3.52,-0.534 1.086,-0.391 2.049,-0.888 2.893,-1.492 0.842,-0.606 1.562,-1.265 2.16,-1.978 0.598,-0.714 1.016,-1.377 1.254,-1.99 0.058,-0.052 0.089,-0.104 0.089,-0.153 0,-0.052 0.03,-0.104 0.089,-0.154 1.291,2.307 3.097,4.085 5.414,5.316 2.315,1.23 5.021,1.81 8.087,1.719 2.462,-0.073 4.79,-0.6 6.966,-1.572 2.173,-0.974 4.027,-2.386 5.551,-4.221 1.525,-1.837 2.661,-4.056 3.417,-6.65 0.753,-2.593 0.994,-5.576 0.745,-8.945 C 28.452,10.2 27.781,7.324 26.715,4.886 25.646,2.446 24.279,0.437 22.612,-1.155 20.945,-2.746 19.022,-3.922 16.838,-4.693 14.65,-5.463 12.295,-5.809 9.75,-5.74 c -1.625,0.044 -3.032,0.224 -4.22,0.55 -1.189,0.326 -2.19,0.695 -3.003,1.11 -0.434,0.207 -0.855,0.44 -1.262,0.699 -0.408,0.256 -0.831,0.54 -1.267,0.848 -0.003,-3.2 -0.006,-6.399 -0.008,-9.599 -0.003,-1.177 0.025,-2.175 0.076,-2.994 0.051,-0.818 0.222,-1.485 0.51,-1.998 0.287,-0.512 0.757,-0.897 1.411,-1.158 0.652,-0.26 1.553,-0.395 2.704,-0.411 -0.005,-0.384 -0.011,-0.768 -0.016,-1.152 -7.299,0.101 -14.6,-0.019 -21.893,-0.362 -0.018,0.383 -0.036,0.767 -0.054,1.151 1.202,0.056 2.112,0.221 2.729,0.502 0.618,0.281 1.062,0.681 1.333,1.202 0.268,0.523 0.419,1.194 0.443,2.014 0.025,0.82 0.018,1.819 -0.022,2.995 -0.434,12.79 -0.868,25.58 -1.302,38.37 -0.032,0.972 -0.28,1.707 -0.741,2.203 -0.462,0.495 -1.02,0.732 -1.671,0.706 -0.651,-0.026 -1.442,-0.303 -2.365,-0.831 -0.924,-0.53 -1.836,-1.228 -2.733,-2.094"
             style="fill:#ffffff;fill-opacity:1;fill-rule:nonzero;stroke:none"
             id="path28" /></g><g
           id="g30"
           transform="translate(280.8835,155.3311)"><path
             d="m 0,0 c 0.763,-0.884 1.611,-1.733 2.546,-2.544 0.929,-0.813 2.097,-1.328 3.501,-1.553 0.917,-0.147 1.83,-0.063 2.747,0.25 0.914,0.314 1.788,1.047 2.635,2.2 0.846,1.151 1.659,2.814 2.442,4.989 0.784,2.174 1.505,5.074 2.156,8.702 0.659,3.678 0.994,6.699 0.999,9.065 0.004,2.364 -0.205,4.247 -0.626,5.644 -0.423,1.399 -1.009,2.395 -1.758,2.988 -0.75,0.594 -1.57,0.962 -2.455,1.105 -0.95,0.153 -1.835,0.098 -2.661,-0.162 C 8.697,30.424 7.931,30.047 7.227,29.558 6.518,29.069 5.865,28.505 5.265,27.868 4.665,27.23 4.136,26.583 3.687,25.923 2.458,17.282 1.229,8.641 0,0 m -17.781,28.78 c 0.085,0.968 0.461,1.886 1.135,2.751 0.673,0.864 1.535,1.621 2.588,2.265 1.051,0.645 2.227,1.12 3.525,1.422 1.296,0.301 2.605,0.378 3.918,0.229 1.255,-0.143 2.394,-0.485 3.418,-1.023 1.02,-0.538 1.907,-1.165 2.66,-1.882 0.748,-0.718 1.372,-1.471 1.866,-2.261 0.494,-0.791 0.815,-1.506 0.967,-2.147 0.05,-0.059 0.072,-0.114 0.067,-0.164 -0.008,-0.051 0.014,-0.106 0.066,-0.165 1.607,2.103 3.646,3.611 6.119,4.505 2.469,0.893 5.241,1.087 8.27,0.566 2.439,-0.419 4.679,-1.269 6.704,-2.537 2.024,-1.271 3.672,-2.93 4.931,-4.962 1.256,-2.034 2.077,-4.392 2.466,-7.067 0.389,-2.675 0.21,-5.662 -0.509,-8.962 -0.71,-3.252 -1.777,-6.005 -3.18,-8.269 -1.406,-2.265 -3.048,-4.061 -4.928,-5.402 -1.878,-1.341 -3.955,-2.234 -6.235,-2.69 -2.282,-0.454 -4.67,-0.466 -7.191,-0.04 -1.608,0.272 -2.978,0.649 -4.113,1.138 -1.136,0.49 -2.075,0.995 -2.827,1.521 -0.403,0.266 -0.786,0.555 -1.155,0.869 -0.37,0.311 -0.748,0.651 -1.138,1.017 -0.45,-3.168 -0.901,-6.335 -1.351,-9.503 -0.166,-1.165 -0.281,-2.157 -0.344,-2.975 -0.064,-0.818 0.012,-1.501 0.228,-2.05 0.21,-0.547 0.625,-0.994 1.237,-1.344 0.613,-0.35 1.489,-0.61 2.628,-0.787 -0.059,-0.38 -0.118,-0.76 -0.177,-1.139 -7.233,1.125 -14.493,2.029 -21.768,2.71 0.035,0.382 0.071,0.764 0.107,1.147 1.199,-0.112 2.124,-0.076 2.775,0.115 0.651,0.192 1.148,0.526 1.489,1.004 0.341,0.48 0.582,1.124 0.722,1.932 0.138,0.809 0.272,1.798 0.397,2.968 1.359,12.726 2.718,25.451 4.078,38.176 0.104,0.966 -0.038,1.729 -0.426,2.284 -0.388,0.555 -0.909,0.868 -1.558,0.933 -0.649,0.066 -1.473,-0.098 -2.459,-0.491 -0.991,-0.396 -1.992,-0.959 -3.002,-1.692"
             style="fill:#ffffff;fill-opacity:1;fill-rule:nonzero;stroke:none"
             id="path32" /></g><g
           id="g34"
           transform="translate(324.6381,173.4021)"><path
             d="M 0,0 C -0.331,1.136 -0.746,2.002 -1.245,2.596 -1.746,3.192 -2.342,3.572 -3.04,3.737 -3.734,3.902 -4.527,3.863 -5.406,3.62 -6.289,3.376 -7.211,2.997 -8.179,2.48 c 0.236,1.049 0.776,1.964 1.627,2.742 0.85,0.777 1.907,1.377 3.176,1.789 1.269,0.413 2.667,0.632 4.194,0.655 C 2.345,7.689 3.93,7.49 5.571,7.07 8.089,6.424 10.06,5.34 11.461,3.842 c 1.403,-1.498 2.403,-3.613 2.989,-6.335 1.405,-6.47 2.673,-12.939 3.804,-19.401 4.811,5.582 9.761,11.085 14.848,16.506 0.373,0.36 0.621,0.709 0.735,1.049 0.098,0.291 0.007,0.591 -0.271,0.901 -0.279,0.308 -0.651,0.582 -1.114,0.817 -0.464,0.235 -0.982,0.458 -1.548,0.671 -0.568,0.212 -1.082,0.393 -1.54,0.541 -0.231,0.074 -0.462,0.149 -0.692,0.223 0.117,0.365 0.234,0.731 0.351,1.096 4.621,-1.482 9.222,-3.047 13.801,-4.696 -0.13,-0.361 -0.26,-0.722 -0.39,-1.083 -1.942,0.699 -3.356,1.016 -4.238,0.97 -0.883,-0.045 -1.727,-0.498 -2.529,-1.359 -9.908,-10.429 -19.306,-21.172 -28.18,-32.192 -1.537,-1.949 -2.943,-3.526 -4.23,-4.728 -1.291,-1.201 -2.524,-2.116 -3.712,-2.741 -1.189,-0.626 -2.339,-0.988 -3.451,-1.086 -1.114,-0.099 -2.249,0.004 -3.416,0.306 -2.434,0.63 -4.207,1.725 -5.34,3.315 -1.133,1.588 -1.474,3.377 -1.008,5.369 0.478,2.044 1.485,3.4 3.032,4.055 1.547,0.655 3.117,0.783 4.695,0.383 1.788,-0.453 3.032,-1.337 3.724,-2.632 0.689,-1.297 0.831,-2.688 0.43,-4.17 -0.228,-0.839 -0.608,-1.637 -1.142,-2.396 -0.535,-0.758 -1.271,-1.46 -2.206,-2.114 1.49,-0.128 3.029,0.356 4.628,1.454 1.599,1.1 3.474,2.991 5.654,5.666 0.788,0.973 1.579,1.943 2.375,2.911 C 5.463,-23.247 2.957,-11.618 0,0"
             style="fill:#ffffff;fill-opacity:1;fill-rule:nonzero;stroke:none"
             id="path36" /></g><g
           id="g38"
           transform="translate(145.1962,81.6836)"><path
             d="m 0,0 c 1.031,0 1.815,0.101 2.354,0.302 0.537,0.202 0.929,0.538 1.175,1.009 0.246,0.47 0.393,1.064 0.438,1.781 0.044,0.717 0.066,1.591 0.066,2.622 v 33.612 c 0,1.03 -0.022,1.904 -0.066,2.622 C 3.922,42.664 3.775,43.247 3.529,43.696 3.283,44.144 2.891,44.479 2.354,44.704 1.815,44.928 1.031,45.04 0,45.04 v 1.009 H 19.159 V 45.04 c -0.986,0 -1.759,-0.112 -2.319,-0.336 -0.561,-0.225 -0.964,-0.56 -1.21,-1.008 -0.247,-0.449 -0.393,-1.032 -0.437,-1.748 -0.045,-0.718 -0.067,-1.592 -0.067,-2.622 V 0.672 h 14.453 c 1.075,0 1.916,0.268 2.521,0.807 0.605,0.538 1.043,1.232 1.311,2.084 0.269,0.85 0.425,1.825 0.471,2.923 0.044,1.098 0.067,2.186 0.067,3.261 h 2.017 V -1.009 L 0,-1.009 Z"
             style="fill:#ffffff;fill-opacity:1;fill-rule:nonzero;stroke:none"
             id="path40" /></g><g
           id="g42"
           transform="translate(188.0194,110.1865)"><path
             d="m 0,0 c -0.583,0 -1.233,-0.213 -1.95,-0.639 -0.717,-0.426 -1.435,-0.998 -2.151,-1.714 0,0.851 0.235,1.681 0.705,2.488 0.471,0.806 1.098,1.534 1.883,2.184 0.784,0.65 1.703,1.165 2.756,1.546 1.053,0.381 2.162,0.572 3.328,0.572 0.942,0 1.883,-0.134 2.824,-0.404 0.94,-0.268 1.781,-0.683 2.52,-1.243 0.74,-0.561 1.334,-1.267 1.781,-2.118 0.449,-0.852 0.673,-1.838 0.673,-2.957 v -20.504 c 0,-0.986 0.023,-1.849 0.068,-2.588 0.043,-0.74 0.189,-1.334 0.437,-1.782 0.245,-0.448 0.648,-0.784 1.209,-1.008 0.561,-0.225 1.334,-0.336 2.32,-0.336 v -1.009 H -2.421 v 1.009 c 1.031,0 1.816,0.111 2.354,0.336 0.537,0.224 0.929,0.56 1.175,1.008 0.246,0.448 0.393,1.042 0.438,1.782 0.044,0.739 0.067,1.602 0.067,2.588 v 20.504 c 0,0.85 -0.157,1.445 -0.47,1.781 C 0.829,-0.168 0.447,0 0,0"
             style="fill:#ffffff;fill-opacity:1;fill-rule:nonzero;stroke:none"
             id="path44" /></g><g
           id="g46"
           transform="translate(210.1356,110.1865)"><path
             d="m 0,0 c -0.583,0 -1.233,-0.213 -1.949,-0.639 -0.718,-0.426 -1.436,-0.998 -2.152,-1.714 0,0.851 0.236,1.681 0.706,2.488 0.471,0.806 1.098,1.534 1.882,2.184 0.784,0.65 1.702,1.165 2.757,1.546 1.052,0.381 2.161,0.572 3.327,0.572 1.569,0 3.048,-0.359 4.437,-1.076 1.388,-0.717 2.353,-1.793 2.89,-3.226 1.121,1.702 2.489,2.958 4.102,3.764 1.613,0.807 3.428,1.21 5.445,1.21 1.838,0 3.539,-0.314 5.11,-0.941 1.568,-0.628 2.924,-1.457 4.066,-2.487 1.143,-1.032 2.027,-2.208 2.656,-3.53 0.627,-1.322 0.942,-2.7 0.942,-4.134 v -16.806 c 0,-0.852 0.168,-1.502 0.504,-1.949 0.336,-0.449 0.75,-0.673 1.244,-0.673 0.492,0 1.097,0.212 1.814,0.639 0.717,0.425 1.434,0.997 2.151,1.713 0,-0.851 -0.235,-1.679 -0.705,-2.487 -0.471,-0.807 -1.088,-1.535 -1.85,-2.184 -0.762,-0.651 -1.658,-1.166 -2.688,-1.546 -1.033,-0.38 -2.13,-0.572 -3.294,-0.572 -0.987,0 -1.961,0.158 -2.924,0.471 -0.965,0.313 -1.817,0.773 -2.555,1.378 -0.74,0.604 -1.334,1.345 -1.781,2.219 -0.449,0.873 -0.672,1.87 -0.672,2.991 v 16.806 c 0,1.523 -0.158,2.834 -0.471,3.933 -0.314,1.098 -0.719,2.005 -1.211,2.722 -0.494,0.717 -1.052,1.244 -1.679,1.58 -0.629,0.336 -1.256,0.504 -1.883,0.504 -0.717,0 -1.379,-0.168 -1.985,-0.504 C 15.631,1.916 15.08,1.479 14.588,0.941 14.094,0.403 13.658,-0.18 13.277,-0.807 12.896,-1.435 12.594,-2.062 12.369,-2.688 v -20.101 c 0,-0.986 0.023,-1.849 0.068,-2.588 0.043,-0.74 0.19,-1.334 0.436,-1.782 0.246,-0.448 0.649,-0.784 1.211,-1.008 0.561,-0.225 1.334,-0.336 2.32,-0.336 v -1.009 H -2.42 v 1.009 c 1.03,0 1.815,0.111 2.353,0.336 0.538,0.224 0.929,0.56 1.176,1.008 0.246,0.448 0.392,1.042 0.437,1.782 0.044,0.739 0.067,1.602 0.067,2.588 v 20.504 c 0,0.85 -0.158,1.445 -0.47,1.781 C 0.828,-0.168 0.447,0 0,0"
             style="fill:#ffffff;fill-opacity:1;fill-rule:nonzero;stroke:none"
             id="path48" /></g><g
           id="g50"
           transform="translate(249.8661,121.2783)"><path
             d="m 0,0 c 0,0.852 0.234,1.681 0.705,2.487 0.471,0.808 1.098,1.535 1.883,2.186 0.783,0.648 1.703,1.165 2.756,1.546 1.052,0.38 2.162,0.571 3.328,0.571 0.941,0 1.883,-0.135 2.822,-0.403 0.942,-0.269 1.781,-0.684 2.522,-1.243 0.74,-0.562 1.334,-1.268 1.781,-2.119 0.447,-0.851 0.672,-1.838 0.672,-2.958 V -23.26 l 11.9,12.639 c 0.492,0.538 0.738,1.03 0.738,1.478 0,0.539 -0.392,0.863 -1.175,0.976 -0.786,0.111 -1.559,0.168 -2.321,0.168 v 1.008 h 10.756 v -1.008 c -1.299,0 -2.363,-0.247 -3.191,-0.74 -0.83,-0.493 -1.604,-1.12 -2.321,-1.882 l -6.857,-7.395 10.219,-16.067 c 0.986,-1.479 1.926,-2.218 2.824,-2.218 0.537,0 1.086,0.201 1.647,0.605 0.56,0.403 1.13,0.896 1.714,1.479 0,-0.941 -0.248,-1.827 -0.74,-2.655 -0.494,-0.83 -1.154,-1.547 -1.982,-2.151 -0.83,-0.606 -1.793,-1.077 -2.891,-1.413 -1.1,-0.335 -2.252,-0.503 -3.463,-0.503 -1.972,0 -3.631,0.492 -4.974,1.478 -1.344,0.985 -2.666,2.51 -3.967,4.571 l -5.916,9.345 v -8.336 c 0,-0.986 0.023,-1.848 0.068,-2.588 0.043,-0.74 0.19,-1.334 0.438,-1.782 0.244,-0.448 0.648,-0.784 1.209,-1.008 0.56,-0.224 1.334,-0.336 2.32,-0.336 v -1.009 H 1.68 v 1.009 c 1.031,0 1.814,0.112 2.353,0.336 0.537,0.224 0.93,0.56 1.176,1.008 0.246,0.448 0.393,1.042 0.437,1.782 0.043,0.74 0.067,1.602 0.067,2.588 V 0.067 C 5.713,0.919 5.557,1.513 5.242,1.85 4.93,2.186 4.547,2.354 4.1,2.354 3.518,2.354 2.867,2.14 2.15,1.715 1.434,1.288 0.715,0.717 0,0"
             style="fill:#ffffff;fill-opacity:1;fill-rule:nonzero;stroke:none"
             id="path52" /></g></g></g><g
       id="g54"><g
         id="g56"
         clip-path="url(#clipPath60)"><g
           id="g62"
           transform="translate(194.8206,125.7815)"><path
             d="m 0,0 c -0.829,-0.082 -1.664,-0.603 -1.88,-0.74 -1.022,-0.647 -1.574,-1.432 -1.704,-1.622 -0.513,-0.753 -0.696,-1.421 -0.867,-2.046 -0.126,-0.462 -0.26,-1.106 -0.241,-1.877 0.015,-0.61 0.115,-0.899 0.233,-1.116 0.042,-0.077 0.214,-0.381 0.665,-0.713 0.351,-0.258 0.77,-0.459 1.602,-0.655 0.457,-0.107 1.209,-0.278 2.265,-0.291 0.706,-0.009 1.495,-0.019 2.459,0.291 0.431,0.139 1.064,0.371 1.683,0.841 0.301,0.23 0.417,0.375 0.452,0.421 0.404,0.523 0.417,1.125 0.421,1.586 0.002,0.164 -0.003,0.765 -0.291,1.65 -0.32,0.982 -0.798,1.723 -1.165,2.2 0,0 -0.867,1.154 -1.909,1.747 -0.213,0.122 -0.429,0.195 -0.429,0.195 0,0 -0.091,0.031 -0.19,0.055 C 0.883,-0.019 0.409,0.041 0,0"
             style="fill:#ffffff;fill-opacity:1;fill-rule:nonzero;stroke:none"
             id="path64" /></g><g
           id="g66"
           transform="translate(203.7592,128.5642)"><path
             d="m 0,0 c -0.396,0.303 -0.815,0.345 -0.938,0.356 -0.975,0.086 -1.716,-0.65 -2.006,-0.938 -0.55,-0.546 -0.792,-1.177 -0.939,-1.554 -0.089,-0.227 -0.166,-0.425 -0.218,-0.703 -0.055,-0.292 -0.292,-1.552 0.509,-2.265 0.396,-0.353 0.871,-0.417 1.068,-0.429 0.504,-0.032 0.869,0.161 1.222,0.348 0.591,0.313 0.938,0.722 1.124,0.946 0.466,0.562 0.664,1.095 0.704,1.206 0.13,0.36 0.395,1.099 0.148,1.947 C 0.6,-0.832 0.459,-0.351 0,0"
             style="fill:#ffffff;fill-opacity:1;fill-rule:nonzero;stroke:none"
             id="path68" /></g><g
           id="g70"
           transform="translate(197.9997,133.8385)"><path
             d="m 0,0 c -0.663,0.065 -1.162,-0.378 -1.352,-0.547 -0.299,-0.265 -0.439,-0.535 -0.646,-0.933 -0.322,-0.621 -0.43,-1.161 -0.469,-1.4 -0.067,-0.409 -0.062,-0.722 -0.057,-0.938 0.011,-0.5 0.025,-1.143 0.356,-1.845 0.179,-0.379 0.42,-0.89 0.971,-1.132 0.287,-0.127 0.544,-0.129 0.647,-0.129 0.707,-10e-4 1.195,0.435 1.359,0.582 0.386,0.346 0.546,0.716 0.724,1.128 0.06,0.138 0.335,0.793 0.384,1.719 0.017,0.316 0.04,0.845 -0.137,1.497 C 1.684,-1.645 1.571,-1.234 1.238,-0.817 1.024,-0.55 0.633,-0.062 0,0"
             style="fill:#ffffff;fill-opacity:1;fill-rule:nonzero;stroke:none"
             id="path72" /></g><g
           id="g74"
           transform="translate(191.7548,133.7414)"><path
             d="m 0,0 c -0.527,-0.07 -0.866,-0.398 -0.987,-0.518 -0.318,-0.316 -0.424,-0.643 -0.615,-1.229 -0.081,-0.25 -0.215,-0.67 -0.259,-1.246 -0.049,-0.641 0.038,-1.179 0.13,-1.553 0.107,-0.434 0.223,-0.906 0.598,-1.392 0.141,-0.181 0.386,-0.491 0.826,-0.711 0.187,-0.094 0.551,-0.278 1.019,-0.227 0.637,0.07 1.024,0.511 1.2,0.712 0.374,0.427 0.489,0.874 0.579,1.23 0.131,0.51 0.121,0.915 0.11,1.342 -0.006,0.254 -0.019,0.671 -0.143,1.203 -0.083,0.355 -0.176,0.738 -0.436,1.176 -0.111,0.188 -0.29,0.484 -0.631,0.76 C 1.237,-0.328 1.006,-0.144 0.647,-0.049 0.318,0.039 0.052,0.007 0,0"
             style="fill:#ffffff;fill-opacity:1;fill-rule:nonzero;stroke:none"
             id="path76" /></g><g
           id="g78"
           transform="translate(185.8577,128.2487)"><path
             d="m 0,0 c -0.176,-0.221 -0.256,-0.427 -0.299,-0.542 -0.028,-0.074 -0.135,-0.37 -0.146,-0.825 -0.013,-0.589 0.144,-1.034 0.251,-1.327 0.203,-0.556 0.468,-0.93 0.558,-1.051 0.298,-0.404 0.607,-0.663 0.777,-0.793 0.303,-0.233 0.685,-0.526 1.262,-0.631 0.229,-0.042 0.587,-0.103 1.003,0.048 0.085,0.031 0.423,0.163 0.711,0.502 0.291,0.341 0.362,0.696 0.421,0.987 0.136,0.673 -0.004,1.216 -0.065,1.44 C 4.37,-1.808 4.224,-1.541 4.101,-1.319 3.954,-1.051 3.737,-0.667 3.325,-0.283 2.88,0.131 2.442,0.32 2.225,0.413 2.019,0.5 1.848,0.571 1.602,0.607 1.407,0.635 1.022,0.685 0.607,0.493 0.276,0.341 0.087,0.11 0,0"
             style="fill:#ffffff;fill-opacity:1;fill-rule:nonzero;stroke:none"
             id="path80" /></g></g></g></g></svg>
