<?xml version="1.0" encoding="UTF-8"?>
<svg id="_레이어_1" data-name="레이어 1" xmlns="http://www.w3.org/2000/svg" viewBox="0 0 285.21 113.7">
  <defs>
    <style>
      .cls-1 {
        fill: #fff;
      }
    </style>
  </defs>
  <g id="_레이어_1-2" data-name="레이어 1">
    <g>
      <path class="cls-1" d="m18.22,61.54c-.13-.36-.26-.72-.39-1.08,1.2-.43,2.07-.87,2.61-1.34.54-.46.87-.98.99-1.57.12-.58.07-1.28-.15-2.1s-.52-1.76-.89-2.82c-4.18-12.1-8.35-24.19-12.53-36.29-.38-1.11-.74-2.05-1.07-2.8s-.74-1.32-1.23-1.69c-.49-.37-1.14-.55-1.93-.54-.8.01-1.88.25-3.24.74-.13-.36-.26-.72-.39-1.08C8.31,7.98,16.69,5.25,25.13,2.79,30.31,1.28,34.82.45,38.6.24c3.79-.21,6.95.15,9.48,1.03s4.49,2.21,5.88,3.97,2.36,3.92,2.92,6.47.59,4.92.1,7.09c-.48,2.18-1.61,4.2-3.35,6.09-1.75,1.88-4.2,3.59-7.35,5.17-3.16,1.58-7.12,3.03-11.9,4.42-1.53.45-3.06.9-4.58,1.37,1.27,4.16,2.54,8.32,3.81,12.49.33,1.08.64,2.01.94,2.8s.67,1.39,1.11,1.79,1.03.63,1.76.67c.73.05,1.68-.1,2.84-.44.11.37.21.74.32,1.11-7.5,2.18-14.96,4.6-22.36,7.27Zm15.63-28.9c3.35-.98,5.83-2.89,7.48-5.8s1.88-6.75.64-11.56-3.34-8.06-6.35-9.72-6.34-1.97-9.94-.92c-1.65.48-3.3.97-4.94,1.47,2.84,9.3,5.67,18.61,8.51,27.91,1.53-.48,3.06-.93,4.6-1.38Z"/>
      <path class="cls-1" d="m68.06,13.01c-.64.12-1.39.52-2.22,1.18-.84.66-1.64,1.49-2.4,2.48-.2-.95-.08-1.94.35-2.97.43-1.03,1.07-2.01,1.93-2.93.86-.93,1.94-1.73,3.25-2.42,1.31-.69,2.71-1.16,4.19-1.43,1.3-.23,2.62-.28,3.96-.14,1.33.14,2.55.48,3.63,1,1.08.53,1.99,1.24,2.73,2.14.74.9,1.2,1.98,1.39,3.25.95,6.33,1.9,12.66,2.86,18.98.26,1.72.68,3.17,1.24,4.36.57,1.18,1.21,2.14,1.93,2.86.72.72,1.48,1.22,2.29,1.5.81.27,1.6.36,2.36.26.87-.12,1.64-.41,2.33-.88.69-.47,1.29-1.05,1.82-1.73.53-.68.98-1.42,1.36-2.21s.67-1.53.87-2.23c-.87-7.6-1.73-15.21-2.6-22.81-.11-.97-.41-1.68-.91-2.14s-1.08-.65-1.72-.57c-.65.08-1.42.42-2.3,1.02s-1.74,1.37-2.56,2.31c-.13-.96.06-1.94.55-2.94.5-.99,1.21-1.92,2.12-2.79.92-.86,2.05-1.59,3.4-2.19,1.35-.59,2.78-.97,4.27-1.13,1.31-.14,2.63-.09,3.95.15,1.32.24,2.5.66,3.54,1.26s1.9,1.38,2.57,2.33c.67.95,1.06,2.06,1.16,3.34.61,7.78,1.22,15.56,1.84,23.35.08.97.32,1.63.74,1.98.41.35.89.51,1.44.47.71-.05,1.49-.35,2.34-.9.85-.54,1.69-1.25,2.53-2.12.06.97-.18,1.93-.69,2.89-.52.96-1.23,1.84-2.14,2.64-.91.81-1.98,1.47-3.22,2.01-1.24.53-2.56.86-3.97.98-1.9.17-3.72-.07-5.48-.71-1.77-.64-3.07-1.73-3.91-3.29-1.15,2.09-2.64,3.7-4.47,4.86s-3.95,1.9-6.37,2.25c-2.21.32-4.3.28-6.3-.13-2-.4-3.79-1.06-5.37-1.98-1.58-.92-2.9-2.06-3.94-3.43-1.04-1.37-1.72-2.83-2.01-4.39-1.17-6.29-2.34-12.58-3.52-18.87-.18-.96-.53-1.65-1.06-2.07-.55-.42-1.14-.57-1.78-.45Z"/>
      <path class="cls-1" d="m123.94,8.91c-.05-.97.19-1.93.74-2.88s1.29-1.82,2.24-2.6c.95-.79,2.05-1.42,3.29-1.9,1.24-.48,2.52-.74,3.84-.77,1.26-.03,2.43.15,3.52.53,1.09.39,2.05.89,2.89,1.49.84.61,1.56,1.26,2.16,1.98.6.71,1.02,1.38,1.25,1.99.06.05.09.1.09.15s.03.1.09.15c1.29-2.31,3.1-4.09,5.41-5.32S154.48-.08,157.55,0c2.46.07,4.79.6,6.97,1.57,2.17.97,4.03,2.39,5.55,4.22,1.52,1.84,2.66,4.06,3.42,6.65.75,2.59.99,5.58.75,8.94-.25,3.32-.92,6.19-1.98,8.63-1.07,2.44-2.44,4.45-4.1,6.04-1.67,1.59-3.59,2.77-5.77,3.54-2.19.77-4.54,1.12-7.09,1.05-1.62-.04-3.03-.22-4.22-.55s-2.19-.69-3-1.11c-.43-.21-.86-.44-1.26-.7-.41-.26-.83-.54-1.27-.85,0,3.2,0,6.4,0,9.6,0,1.18.03,2.17.08,2.99s.22,1.48.51,2c.29.51.76.9,1.41,1.16.65.26,1.55.4,2.7.41,0,.38,0,.77-.02,1.15-7.3-.1-14.6.02-21.89.36-.02-.38-.04-.77-.05-1.15,1.2-.06,2.11-.22,2.73-.5s1.06-.68,1.33-1.2.42-1.19.44-2.01.02-1.82-.02-3c-.43-12.79-.87-25.58-1.3-38.37-.03-.97-.28-1.71-.74-2.2-.46-.5-1.02-.73-1.67-.71-.65.03-1.44.3-2.36.83-.94.54-1.86,1.24-2.75,2.11Zm21.6,26.01c.88.77,1.84,1.49,2.87,2.16,1.03.67,2.25,1.02,3.67,1.05.93.02,1.82-.19,2.68-.63.86-.44,1.62-1.29,2.29-2.55s1.24-3.02,1.72-5.28c.47-2.26.78-5.23.91-8.92.14-3.73.05-6.77-.28-9.12-.33-2.34-.8-4.18-1.41-5.5-.61-1.33-1.33-2.23-2.15-2.71-.82-.48-1.68-.73-2.58-.75-.95-.02-1.82.16-2.6.53-.78.37-1.48.85-2.11,1.44-.63.58-1.2,1.23-1.7,1.95-.51.72-.93,1.43-1.29,2.15,0,8.72-.02,17.45-.02,26.18Z"/>
      <path class="cls-1" d="m180.84,9.92c.08-.97.46-1.89,1.14-2.75.67-.86,1.53-1.62,2.59-2.26,1.05-.64,2.23-1.12,3.52-1.42,1.3-.3,2.61-.38,3.92-.23,1.26.14,2.39.49,3.42,1.02,1.02.54,1.91,1.17,2.66,1.88.75.72,1.37,1.47,1.87,2.26.49.79.81,1.51.97,2.15.05.06.07.11.07.16-.01.05.01.11.07.16,1.61-2.1,3.65-3.61,6.12-4.5s5.24-1.09,8.27-.57c2.44.42,4.68,1.27,6.7,2.54,2.02,1.27,3.67,2.93,4.93,4.96,1.26,2.03,2.08,4.39,2.47,7.07.39,2.67.21,5.66-.51,8.96-.71,3.25-1.78,6-3.18,8.27-1.41,2.26-3.05,4.06-4.93,5.4-1.88,1.34-3.95,2.23-6.23,2.69-2.28.45-4.67.47-7.19.04-1.61-.27-2.98-.65-4.11-1.14-1.14-.49-2.08-1-2.83-1.52-.4-.27-.79-.56-1.15-.87-.37-.31-.75-.65-1.14-1.02-.45,3.17-.9,6.34-1.35,9.5-.17,1.17-.28,2.16-.34,2.98s.01,1.5.23,2.05c.21.55.62.99,1.24,1.34.61.35,1.49.61,2.63.79-.06.38-.12.76-.18,1.14-7.23-1.13-14.49-2.03-21.77-2.71.04-.38.07-.76.11-1.15,1.2.11,2.12.08,2.77-.12.65-.19,1.15-.53,1.49-1,.34-.48.58-1.12.72-1.93s.27-1.8.4-2.97c1.36-12.73,2.72-25.45,4.08-38.18.1-.97-.04-1.73-.43-2.28-.39-.56-.91-.87-1.56-.93-.65-.07-1.47.1-2.46.49-1.02.4-2.02.97-3.03,1.7Zm17.78,28.78c.76.88,1.61,1.73,2.55,2.54.93.81,2.1,1.33,3.5,1.55.92.15,1.83.06,2.75-.25.91-.31,1.79-1.05,2.63-2.2.85-1.15,1.66-2.81,2.44-4.99.78-2.17,1.5-5.07,2.16-8.7.66-3.68.99-6.7,1-9.07,0-2.36-.2-4.25-.63-5.64-.42-1.4-1.01-2.39-1.76-2.99-.75-.59-1.57-.96-2.46-1.11-.95-.15-1.83-.1-2.66.16-.83.26-1.59.64-2.3,1.13s-1.36,1.05-1.96,1.69-1.13,1.29-1.58,1.95c-1.22,8.65-2.45,17.29-3.68,25.93Z"/>
      <path class="cls-1" d="m242.38,20.63c-.33-1.14-.75-2-1.24-2.6-.5-.6-1.1-.98-1.8-1.14-.69-.16-1.49-.13-2.37.12-.88.24-1.81.62-2.77,1.14.24-1.05.78-1.96,1.63-2.74s1.91-1.38,3.18-1.79,2.67-.63,4.19-.65c1.53-.02,3.11.18,4.75.6,2.52.65,4.49,1.73,5.89,3.23,1.4,1.5,2.4,3.61,2.99,6.34,1.4,6.47,2.67,12.94,3.8,19.4,4.81-5.58,9.76-11.09,14.85-16.51.37-.36.62-.71.74-1.05.1-.29.01-.59-.27-.9-.28-.31-.65-.58-1.11-.82s-.98-.46-1.55-.67c-.57-.21-1.08-.39-1.54-.54-.23-.07-.46-.15-.69-.22.12-.37.23-.73.35-1.1,4.62,1.48,9.22,3.05,13.8,4.7l-.39,1.08c-1.94-.7-3.36-1.02-4.24-.97-.88.05-1.73.5-2.53,1.36-9.91,10.43-19.31,21.17-28.18,32.19-1.54,1.95-2.94,3.53-4.23,4.73s-2.52,2.12-3.71,2.74c-1.19.63-2.34.99-3.45,1.09-1.11.1-2.25,0-3.42-.31-2.43-.63-4.21-1.72-5.34-3.31s-1.47-3.38-1.01-5.37c.48-2.04,1.49-3.4,3.03-4.05,1.55-.66,3.12-.78,4.7-.38,1.79.45,3.03,1.34,3.72,2.63.69,1.3.83,2.69.43,4.17-.23.84-.61,1.64-1.14,2.4-.53.76-1.27,1.46-2.21,2.11,1.49.13,3.03-.36,4.63-1.45,1.6-1.1,3.47-2.99,5.65-5.67.79-.97,1.58-1.94,2.37-2.91-2.05-11.64-4.56-23.26-7.51-34.88Z"/>
    </g>
    <path class="cls-1" d="m62.94,112.35c1.03,0,1.82-.1,2.35-.3.54-.2.93-.54,1.18-1.01s.39-1.06.44-1.78c.04-.72.07-1.59.07-2.62v-33.61c0-1.03-.02-1.9-.07-2.62-.04-.72-.19-1.3-.44-1.75s-.64-.78-1.18-1.01c-.54-.22-1.32-.34-2.35-.34v-1.01h19.16v1.01c-.99,0-1.76.11-2.32.34-.56.22-.96.56-1.21,1.01s-.39,1.03-.44,1.75c-.04.72-.07,1.59-.07,2.62v38.65h14.45c1.08,0,1.92-.27,2.52-.81.61-.54,1.04-1.23,1.31-2.08s.42-1.83.47-2.92c.04-1.1.07-2.19.07-3.26h2.02v10.76h-35.96v-1.02Z"/>
    <path class="cls-1" d="m105.76,83.84c-.58,0-1.23.21-1.95.64s-1.43,1-2.15,1.71c0-.85.23-1.68.71-2.49s1.1-1.53,1.88-2.18,1.7-1.17,2.76-1.55,2.16-.57,3.33-.57c.94,0,1.88.13,2.82.4.94.27,1.78.68,2.52,1.24.74.56,1.33,1.27,1.78,2.12.45.85.67,1.84.67,2.96v20.5c0,.99.02,1.85.07,2.59.04.74.19,1.33.44,1.78s.65.78,1.21,1.01c.56.22,1.33.34,2.32.34v1.01h-18.83v-1.01c1.03,0,1.82-.11,2.35-.34.54-.22.93-.56,1.18-1.01s.39-1.04.44-1.78c.04-.74.07-1.6.07-2.59v-20.5c0-.85-.16-1.45-.47-1.78s-.7-.5-1.15-.5Z"/>
    <path class="cls-1" d="m127.88,83.84c-.58,0-1.23.21-1.95.64s-1.44,1-2.15,1.71c0-.85.24-1.68.71-2.49s1.1-1.53,1.88-2.18,1.7-1.17,2.76-1.55c1.05-.38,2.16-.57,3.33-.57,1.57,0,3.05.36,4.44,1.08s2.35,1.79,2.89,3.23c1.12-1.7,2.49-2.96,4.1-3.76s3.43-1.21,5.45-1.21c1.84,0,3.54.31,5.11.94s2.92,1.46,4.07,2.49c1.14,1.03,2.03,2.21,2.66,3.53.63,1.32.94,2.7.94,4.13v16.81c0,.85.17,1.5.5,1.95.34.45.75.67,1.24.67s1.1-.21,1.81-.64c.72-.43,1.43-1,2.15-1.71,0,.85-.23,1.68-.71,2.49-.47.81-1.09,1.54-1.85,2.18-.76.65-1.66,1.17-2.69,1.55s-2.13.57-3.29.57c-.99,0-1.96-.16-2.92-.47-.96-.31-1.82-.77-2.55-1.38-.74-.6-1.33-1.34-1.78-2.22-.45-.87-.67-1.87-.67-2.99v-16.81c0-1.52-.16-2.83-.47-3.93-.31-1.1-.72-2-1.21-2.72s-1.05-1.24-1.68-1.58c-.63-.34-1.26-.5-1.88-.5-.72,0-1.38.17-1.98.5-.6.34-1.15.77-1.65,1.31-.49.54-.93,1.12-1.31,1.75s-.68,1.25-.91,1.88v20.1c0,.99.02,1.85.07,2.59.04.74.19,1.33.44,1.78s.65.78,1.21,1.01c.56.22,1.33.34,2.32.34v1.01h-18.82v-1.01c1.03,0,1.81-.11,2.35-.34.54-.22.93-.56,1.18-1.01s.39-1.04.44-1.78c.04-.74.07-1.6.07-2.59v-20.5c0-.85-.16-1.45-.47-1.78-.36-.35-.74-.52-1.18-.52Z"/>
    <path class="cls-1" d="m167.61,72.75c0-.85.23-1.68.71-2.49.47-.81,1.1-1.54,1.88-2.19.78-.65,1.7-1.17,2.76-1.55,1.05-.38,2.16-.57,3.33-.57.94,0,1.88.13,2.82.4.94.27,1.78.68,2.52,1.24.74.56,1.33,1.27,1.78,2.12.45.85.67,1.84.67,2.96v23.33l11.9-12.64c.49-.54.74-1.03.74-1.48,0-.54-.39-.86-1.18-.98-.79-.11-1.56-.17-2.32-.17v-1.01h10.76v1.01c-1.3,0-2.36.25-3.19.74-.83.49-1.6,1.12-2.32,1.88l-6.86,7.39,10.22,16.07c.99,1.48,1.93,2.22,2.82,2.22.54,0,1.09-.2,1.65-.6s1.13-.9,1.71-1.48c0,.94-.25,1.83-.74,2.66s-1.15,1.55-1.98,2.15c-.83.61-1.79,1.08-2.89,1.41-1.1.34-2.25.5-3.46.5-1.97,0-3.63-.49-4.97-1.48-1.34-.99-2.67-2.51-3.97-4.57l-5.92-9.34v8.34c0,.99.02,1.85.07,2.59.04.74.19,1.33.44,1.78.24.45.65.78,1.21,1.01.56.22,1.33.34,2.32.34v1.01h-18.82v-1.01c1.03,0,1.81-.11,2.35-.34.54-.22.93-.56,1.18-1.01s.39-1.04.44-1.78c.04-.74.07-1.6.07-2.59v-33.95c0-.85-.16-1.45-.47-1.78-.31-.34-.7-.5-1.14-.5-.58,0-1.23.21-1.95.64-.74.43-1.46,1-2.17,1.72Z"/>
  </g>
  <g id="paw2">
    <g>
      <path class="cls-1" d="m112.56,68.25c-.83.08-1.66.6-1.88.74-1.02.65-1.57,1.43-1.7,1.62-.51.75-.7,1.42-.87,2.05-.13.46-.26,1.11-.24,1.88,0,.61.12.9.23,1.12.04.08.21.38.66.71.35.26.77.46,1.6.66.46.11,1.21.28,2.26.29.71,0,1.5.02,2.46-.29.43-.14,1.06-.37,1.68-.84.3-.23.42-.37.45-.42.4-.52.42-1.12.42-1.59,0-.16,0-.77-.29-1.65-.32-.98-.8-1.72-1.16-2.2,0,0-.87-1.15-1.91-1.75-.21-.12-.43-.19-.43-.19,0,0-.09-.03-.19-.06-.21-.06-.68-.12-1.09-.08Z"/>
      <path class="cls-1" d="m121.5,65.47c-.4-.3-.82-.35-.94-.36-.97-.09-1.72.65-2.01.94-.55.55-.79,1.18-.94,1.55-.09.23-.17.43-.22.7-.05.29-.29,1.55.51,2.26.4.35.87.42,1.07.43.5.03.87-.16,1.22-.35.59-.31.94-.72,1.12-.95.47-.56.66-1.09.7-1.21.13-.36.4-1.1.15-1.95-.06-.23-.2-.71-.66-1.06Z"/>
      <path class="cls-1" d="m115.74,60.19c-.66-.07-1.16.38-1.35.55-.3.27-.44.54-.65.93-.32.62-.43,1.16-.47,1.4-.07.41-.06.72-.06.94,0,.5.02,1.14.36,1.84.18.38.42.89.97,1.13.29.13.54.13.65.13.71,0,1.2-.44,1.36-.58.39-.35.55-.72.72-1.13.06-.14.34-.79.38-1.72.02-.32.04-.84-.14-1.5-.1-.35-.21-.76-.54-1.18-.21-.26-.6-.75-1.23-.81Z"/>
      <path class="cls-1" d="m109.49,60.29c-.53.07-.87.4-.99.52-.32.32-.42.64-.61,1.23-.08.25-.21.67-.26,1.25-.05.64.04,1.18.13,1.55.11.43.22.91.6,1.39.14.18.39.49.83.71.19.09.55.28,1.02.23.64-.07,1.02-.51,1.2-.71.37-.43.49-.87.58-1.23.13-.51.12-.92.11-1.34,0-.25-.02-.67-.14-1.2-.08-.35-.18-.74-.44-1.18-.11-.19-.29-.48-.63-.76-.15-.12-.39-.31-.74-.4-.34-.1-.6-.07-.66-.06Z"/>
      <path class="cls-1" d="m103.6,65.78c-.18.22-.26.43-.3.54-.03.07-.14.37-.15.83,0,.59.14,1.03.25,1.33.2.56.47.93.56,1.05.3.4.61.66.78.79.3.23.69.53,1.26.63.23.04.59.1,1-.05.09-.03.42-.16.71-.5.29-.34.36-.7.42-.99.14-.67,0-1.22-.06-1.44-.1-.38-.25-.65-.37-.87-.15-.27-.36-.65-.78-1.04-.44-.41-.88-.6-1.1-.7-.21-.09-.38-.16-.62-.19-.19-.03-.58-.08-.99.11-.34.16-.52.39-.61.5Z"/>
    </g>
  </g>
</svg>