<?xml version="1.0" encoding="utf-8"?>
<!-- Generator: Adobe Illustrator 27.2.0, SVG Export Plug-In . SVG Version: 6.00 Build 0)  -->
<svg version="1.1" xmlns="http://www.w3.org/2000/svg" xmlns:xlink="http://www.w3.org/1999/xlink" x="0px" y="0px"
	 viewBox="0 0 443 259" style="enable-background:new 0 0 443 259;" xml:space="preserve">
<style type="text/css">
	.st0{fill:#004BA0;}
</style>
<g id="레이어_1">
	<g>
		<g>
			<path class="st0" d="M100.48,126.51c-0.13-0.36-0.26-0.72-0.39-1.08c1.2-0.43,2.07-0.87,2.61-1.34c0.54-0.46,0.87-0.98,0.99-1.57
				c0.12-0.58,0.07-1.28-0.15-2.1c-0.22-0.82-0.52-1.76-0.89-2.82c-4.18-12.1-8.35-24.19-12.53-36.29c-0.38-1.11-0.74-2.05-1.07-2.8
				c-0.33-0.75-0.74-1.32-1.23-1.69c-0.49-0.37-1.14-0.55-1.93-0.54c-0.8,0.01-1.88,0.25-3.24,0.74c-0.13-0.36-0.26-0.72-0.39-1.08
				c8.31-2.99,16.69-5.72,25.13-8.18c5.18-1.51,9.69-2.34,13.47-2.55c3.79-0.21,6.95,0.15,9.48,1.03c2.53,0.88,4.49,2.21,5.88,3.97
				c1.39,1.76,2.36,3.92,2.92,6.47c0.56,2.55,0.59,4.92,0.1,7.09c-0.48,2.18-1.61,4.2-3.35,6.09c-1.75,1.88-4.2,3.59-7.35,5.17
				c-3.16,1.58-7.12,3.03-11.9,4.42c-1.53,0.45-3.06,0.9-4.58,1.37c1.27,4.16,2.54,8.32,3.81,12.49c0.33,1.08,0.64,2.01,0.94,2.8
				c0.3,0.79,0.67,1.39,1.11,1.79c0.44,0.4,1.03,0.63,1.76,0.67c0.73,0.05,1.68-0.1,2.84-0.44c0.11,0.37,0.21,0.74,0.32,1.11
				C115.34,121.42,107.88,123.84,100.48,126.51z M116.11,97.61c3.35-0.98,5.83-2.89,7.48-5.8c1.65-2.91,1.88-6.75,0.64-11.56
				c-1.24-4.81-3.34-8.06-6.35-9.72c-3.01-1.66-6.34-1.97-9.94-0.92c-1.65,0.48-3.3,0.97-4.94,1.47c2.84,9.3,5.67,18.61,8.51,27.91
				C113.04,98.51,114.57,98.06,116.11,97.61z"/>
			<path class="st0" d="M150.32,77.98c-0.64,0.12-1.39,0.52-2.22,1.18c-0.84,0.66-1.64,1.49-2.4,2.48c-0.2-0.95-0.08-1.94,0.35-2.97
				c0.43-1.03,1.07-2.01,1.93-2.93c0.86-0.93,1.94-1.73,3.25-2.42c1.31-0.69,2.71-1.16,4.19-1.43c1.3-0.23,2.62-0.28,3.96-0.14
				c1.33,0.14,2.55,0.48,3.63,1c1.08,0.53,1.99,1.24,2.73,2.14c0.74,0.9,1.2,1.98,1.39,3.25c0.95,6.33,1.9,12.66,2.86,18.98
				c0.26,1.72,0.68,3.17,1.24,4.36c0.57,1.18,1.21,2.14,1.93,2.86c0.72,0.72,1.48,1.22,2.29,1.5c0.81,0.27,1.6,0.36,2.36,0.26
				c0.87-0.12,1.64-0.41,2.33-0.88c0.69-0.47,1.29-1.05,1.82-1.73c0.53-0.68,0.98-1.42,1.36-2.21c0.38-0.79,0.67-1.53,0.87-2.23
				c-0.87-7.6-1.73-15.21-2.6-22.81c-0.11-0.97-0.41-1.68-0.91-2.14c-0.5-0.46-1.08-0.65-1.72-0.57c-0.65,0.08-1.42,0.42-2.3,1.02
				c-0.88,0.6-1.74,1.37-2.56,2.31c-0.13-0.96,0.06-1.94,0.55-2.94c0.5-0.99,1.21-1.92,2.12-2.79c0.92-0.86,2.05-1.59,3.4-2.19
				c1.35-0.59,2.78-0.97,4.27-1.13c1.31-0.14,2.63-0.09,3.95,0.15c1.32,0.24,2.5,0.66,3.54,1.26c1.04,0.6,1.9,1.38,2.57,2.33
				c0.67,0.95,1.06,2.06,1.16,3.34c0.61,7.78,1.22,15.56,1.84,23.35c0.08,0.97,0.32,1.63,0.74,1.98c0.41,0.35,0.89,0.51,1.44,0.47
				c0.71-0.05,1.49-0.35,2.34-0.9c0.85-0.54,1.69-1.25,2.53-2.12c0.06,0.97-0.18,1.93-0.69,2.89c-0.52,0.96-1.23,1.84-2.14,2.64
				c-0.91,0.81-1.98,1.47-3.22,2.01c-1.24,0.53-2.56,0.86-3.97,0.98c-1.9,0.17-3.72-0.07-5.48-0.71c-1.77-0.64-3.07-1.73-3.91-3.29
				c-1.15,2.09-2.64,3.7-4.47,4.86c-1.83,1.16-3.95,1.9-6.37,2.25c-2.21,0.32-4.3,0.28-6.3-0.13c-2-0.4-3.79-1.06-5.37-1.98
				c-1.58-0.92-2.9-2.06-3.94-3.43c-1.04-1.37-1.72-2.83-2.01-4.39c-1.17-6.29-2.34-12.58-3.52-18.87
				c-0.18-0.96-0.53-1.65-1.06-2.07C151.55,78.01,150.96,77.86,150.32,77.98z"/>
			<path class="st0" d="M206.2,73.88c-0.05-0.97,0.19-1.93,0.74-2.88c0.55-0.95,1.29-1.82,2.24-2.6c0.95-0.79,2.05-1.42,3.29-1.9
				c1.24-0.48,2.52-0.74,3.84-0.77c1.26-0.03,2.43,0.15,3.52,0.53c1.09,0.39,2.05,0.89,2.89,1.49c0.84,0.61,1.56,1.26,2.16,1.98
				c0.6,0.71,1.02,1.38,1.25,1.99c0.06,0.05,0.09,0.1,0.09,0.15c0,0.05,0.03,0.1,0.09,0.15c1.29-2.31,3.1-4.09,5.41-5.32
				c2.31-1.23,5.02-1.81,8.09-1.72c2.46,0.07,4.79,0.6,6.97,1.57c2.17,0.97,4.03,2.39,5.55,4.22c1.52,1.84,2.66,4.06,3.42,6.65
				c0.75,2.59,0.99,5.58,0.75,8.94c-0.25,3.32-0.92,6.19-1.98,8.63c-1.07,2.44-2.44,4.45-4.1,6.04c-1.67,1.59-3.59,2.77-5.77,3.54
				c-2.19,0.77-4.54,1.12-7.09,1.05c-1.62-0.04-3.03-0.22-4.22-0.55c-1.19-0.33-2.19-0.69-3-1.11c-0.43-0.21-0.86-0.44-1.26-0.7
				c-0.41-0.26-0.83-0.54-1.27-0.85c0,3.2-0.01,6.4-0.01,9.6c0,1.18,0.03,2.17,0.08,2.99c0.05,0.82,0.22,1.48,0.51,2
				c0.29,0.51,0.76,0.9,1.41,1.16c0.65,0.26,1.55,0.4,2.7,0.41c-0.01,0.38-0.01,0.77-0.02,1.15c-7.3-0.1-14.6,0.02-21.89,0.36
				c-0.02-0.38-0.04-0.77-0.05-1.15c1.2-0.06,2.11-0.22,2.73-0.5c0.62-0.28,1.06-0.68,1.33-1.2c0.27-0.52,0.42-1.19,0.44-2.01
				c0.02-0.82,0.02-1.82-0.02-3c-0.43-12.79-0.87-25.58-1.3-38.37c-0.03-0.97-0.28-1.71-0.74-2.2c-0.46-0.5-1.02-0.73-1.67-0.71
				c-0.65,0.03-1.44,0.3-2.36,0.83C208.01,72.31,207.09,73.01,206.2,73.88z M227.8,99.89c0.88,0.77,1.84,1.49,2.87,2.16
				c1.03,0.67,2.25,1.02,3.67,1.05c0.93,0.02,1.82-0.19,2.68-0.63c0.86-0.44,1.62-1.29,2.29-2.55c0.67-1.26,1.24-3.02,1.72-5.28
				c0.47-2.26,0.78-5.23,0.91-8.92c0.14-3.73,0.05-6.77-0.28-9.12c-0.33-2.34-0.8-4.18-1.41-5.5c-0.61-1.33-1.33-2.23-2.15-2.71
				c-0.82-0.48-1.68-0.73-2.58-0.75c-0.95-0.02-1.82,0.16-2.6,0.53c-0.78,0.37-1.48,0.85-2.11,1.44c-0.63,0.58-1.2,1.23-1.7,1.95
				c-0.51,0.72-0.93,1.43-1.29,2.15C227.81,82.43,227.8,91.16,227.8,99.89z"/>
			<path class="st0" d="M263.1,74.89c0.08-0.97,0.46-1.89,1.14-2.75c0.67-0.86,1.53-1.62,2.59-2.26c1.05-0.64,2.23-1.12,3.52-1.42
				c1.3-0.3,2.61-0.38,3.92-0.23c1.26,0.14,2.39,0.49,3.42,1.02c1.02,0.54,1.91,1.17,2.66,1.88c0.75,0.72,1.37,1.47,1.87,2.26
				c0.49,0.79,0.81,1.51,0.97,2.15c0.05,0.06,0.07,0.11,0.07,0.16c-0.01,0.05,0.01,0.11,0.07,0.16c1.61-2.1,3.65-3.61,6.12-4.5
				c2.47-0.89,5.24-1.09,8.27-0.57c2.44,0.42,4.68,1.27,6.7,2.54c2.02,1.27,3.67,2.93,4.93,4.96c1.26,2.03,2.08,4.39,2.47,7.07
				c0.39,2.67,0.21,5.66-0.51,8.96c-0.71,3.25-1.78,6-3.18,8.27c-1.41,2.26-3.05,4.06-4.93,5.4c-1.88,1.34-3.95,2.23-6.23,2.69
				c-2.28,0.45-4.67,0.47-7.19,0.04c-1.61-0.27-2.98-0.65-4.11-1.14c-1.14-0.49-2.08-1-2.83-1.52c-0.4-0.27-0.79-0.56-1.15-0.87
				c-0.37-0.31-0.75-0.65-1.14-1.02c-0.45,3.17-0.9,6.34-1.35,9.5c-0.17,1.17-0.28,2.16-0.34,2.98c-0.06,0.82,0.01,1.5,0.23,2.05
				c0.21,0.55,0.62,0.99,1.24,1.34c0.61,0.35,1.49,0.61,2.63,0.79c-0.06,0.38-0.12,0.76-0.18,1.14c-7.23-1.13-14.49-2.03-21.77-2.71
				c0.04-0.38,0.07-0.76,0.11-1.15c1.2,0.11,2.12,0.08,2.77-0.12c0.65-0.19,1.15-0.53,1.49-1c0.34-0.48,0.58-1.12,0.72-1.93
				c0.14-0.81,0.27-1.8,0.4-2.97c1.36-12.73,2.72-25.45,4.08-38.18c0.1-0.97-0.04-1.73-0.43-2.28c-0.39-0.56-0.91-0.87-1.56-0.93
				c-0.65-0.07-1.47,0.1-2.46,0.49C265.11,73.59,264.11,74.16,263.1,74.89z M280.88,103.67c0.76,0.88,1.61,1.73,2.55,2.54
				c0.93,0.81,2.1,1.33,3.5,1.55c0.92,0.15,1.83,0.06,2.75-0.25c0.91-0.31,1.79-1.05,2.63-2.2c0.85-1.15,1.66-2.81,2.44-4.99
				c0.78-2.17,1.5-5.07,2.16-8.7c0.66-3.68,0.99-6.7,1-9.07c0-2.36-0.2-4.25-0.63-5.64c-0.42-1.4-1.01-2.39-1.76-2.99
				c-0.75-0.59-1.57-0.96-2.46-1.11c-0.95-0.15-1.83-0.1-2.66,0.16c-0.83,0.26-1.59,0.64-2.3,1.13c-0.71,0.49-1.36,1.05-1.96,1.69
				c-0.6,0.64-1.13,1.29-1.58,1.95C283.34,86.39,282.11,95.03,280.88,103.67z"/>
			<path class="st0" d="M324.64,85.6c-0.33-1.14-0.75-2-1.24-2.6c-0.5-0.6-1.1-0.98-1.8-1.14c-0.69-0.16-1.49-0.13-2.37,0.12
				c-0.88,0.24-1.81,0.62-2.77,1.14c0.24-1.05,0.78-1.96,1.63-2.74c0.85-0.78,1.91-1.38,3.18-1.79c1.27-0.41,2.67-0.63,4.19-0.65
				c1.53-0.02,3.11,0.18,4.75,0.6c2.52,0.65,4.49,1.73,5.89,3.23c1.4,1.5,2.4,3.61,2.99,6.34c1.4,6.47,2.67,12.94,3.8,19.4
				c4.81-5.58,9.76-11.09,14.85-16.51c0.37-0.36,0.62-0.71,0.74-1.05c0.1-0.29,0.01-0.59-0.27-0.9c-0.28-0.31-0.65-0.58-1.11-0.82
				c-0.46-0.24-0.98-0.46-1.55-0.67c-0.57-0.21-1.08-0.39-1.54-0.54c-0.23-0.07-0.46-0.15-0.69-0.22c0.12-0.37,0.23-0.73,0.35-1.1
				c4.62,1.48,9.22,3.05,13.8,4.7c-0.13,0.36-0.26,0.72-0.39,1.08c-1.94-0.7-3.36-1.02-4.24-0.97c-0.88,0.05-1.73,0.5-2.53,1.36
				c-9.91,10.43-19.31,21.17-28.18,32.19c-1.54,1.95-2.94,3.53-4.23,4.73c-1.29,1.2-2.52,2.12-3.71,2.74
				c-1.19,0.63-2.34,0.99-3.45,1.09c-1.11,0.1-2.25,0-3.42-0.31c-2.43-0.63-4.21-1.72-5.34-3.31c-1.13-1.59-1.47-3.38-1.01-5.37
				c0.48-2.04,1.49-3.4,3.03-4.05c1.55-0.66,3.12-0.78,4.7-0.38c1.79,0.45,3.03,1.34,3.72,2.63c0.69,1.3,0.83,2.69,0.43,4.17
				c-0.23,0.84-0.61,1.64-1.14,2.4c-0.53,0.76-1.27,1.46-2.21,2.11c1.49,0.13,3.03-0.36,4.63-1.45c1.6-1.1,3.47-2.99,5.65-5.67
				c0.79-0.97,1.58-1.94,2.37-2.91C330.1,108.84,327.59,97.22,324.64,85.6z"/>
		</g>
	</g>
	<path class="st0" d="M145.2,177.32c1.03,0,1.82-0.1,2.35-0.3c0.54-0.2,0.93-0.54,1.18-1.01s0.39-1.06,0.44-1.78
		c0.04-0.72,0.07-1.59,0.07-2.62v-33.61c0-1.03-0.02-1.9-0.07-2.62c-0.04-0.72-0.19-1.3-0.44-1.75c-0.25-0.45-0.64-0.78-1.18-1.01
		c-0.54-0.22-1.32-0.34-2.35-0.34v-1.01h19.16v1.01c-0.99,0-1.76,0.11-2.32,0.34c-0.56,0.22-0.96,0.56-1.21,1.01
		c-0.25,0.45-0.39,1.03-0.44,1.75c-0.04,0.72-0.07,1.59-0.07,2.62v38.65h14.45c1.08,0,1.92-0.27,2.52-0.81
		c0.61-0.54,1.04-1.23,1.31-2.08c0.27-0.85,0.42-1.83,0.47-2.92c0.04-1.1,0.07-2.19,0.07-3.26h2.02v10.76H145.2V177.32z"/>
	<path class="st0" d="M188.02,148.81c-0.58,0-1.23,0.21-1.95,0.64c-0.72,0.43-1.43,1-2.15,1.71c0-0.85,0.23-1.68,0.71-2.49
		s1.1-1.53,1.88-2.18c0.78-0.65,1.7-1.17,2.76-1.55s2.16-0.57,3.33-0.57c0.94,0,1.88,0.13,2.82,0.4c0.94,0.27,1.78,0.68,2.52,1.24
		c0.74,0.56,1.33,1.27,1.78,2.12c0.45,0.85,0.67,1.84,0.67,2.96v20.5c0,0.99,0.02,1.85,0.07,2.59c0.04,0.74,0.19,1.33,0.44,1.78
		c0.25,0.45,0.65,0.78,1.21,1.01c0.56,0.22,1.33,0.34,2.32,0.34v1.01H185.6v-1.01c1.03,0,1.82-0.11,2.35-0.34
		c0.54-0.22,0.93-0.56,1.18-1.01s0.39-1.04,0.44-1.78c0.04-0.74,0.07-1.6,0.07-2.59v-20.5c0-0.85-0.16-1.45-0.47-1.78
		S188.47,148.81,188.02,148.81z"/>
	<path class="st0" d="M210.14,148.81c-0.58,0-1.23,0.21-1.95,0.64c-0.72,0.43-1.44,1-2.15,1.71c0-0.85,0.24-1.68,0.71-2.49
		s1.1-1.53,1.88-2.18c0.78-0.65,1.7-1.17,2.76-1.55c1.05-0.38,2.16-0.57,3.33-0.57c1.57,0,3.05,0.36,4.44,1.08
		c1.39,0.72,2.35,1.79,2.89,3.23c1.12-1.7,2.49-2.96,4.1-3.76s3.43-1.21,5.45-1.21c1.84,0,3.54,0.31,5.11,0.94
		c1.57,0.63,2.92,1.46,4.07,2.49c1.14,1.03,2.03,2.21,2.66,3.53c0.63,1.32,0.94,2.7,0.94,4.13v16.81c0,0.85,0.17,1.5,0.5,1.95
		c0.34,0.45,0.75,0.67,1.24,0.67c0.49,0,1.1-0.21,1.81-0.64c0.72-0.43,1.43-1,2.15-1.71c0,0.85-0.23,1.68-0.71,2.49
		c-0.47,0.81-1.09,1.54-1.85,2.18c-0.76,0.65-1.66,1.17-2.69,1.55c-1.03,0.38-2.13,0.57-3.29,0.57c-0.99,0-1.96-0.16-2.92-0.47
		c-0.96-0.31-1.82-0.77-2.55-1.38c-0.74-0.6-1.33-1.34-1.78-2.22c-0.45-0.87-0.67-1.87-0.67-2.99V154.8c0-1.52-0.16-2.83-0.47-3.93
		c-0.31-1.1-0.72-2-1.21-2.72c-0.49-0.72-1.05-1.24-1.68-1.58c-0.63-0.34-1.26-0.5-1.88-0.5c-0.72,0-1.38,0.17-1.98,0.5
		c-0.6,0.34-1.15,0.77-1.65,1.31c-0.49,0.54-0.93,1.12-1.31,1.75c-0.38,0.63-0.68,1.25-0.91,1.88v20.1c0,0.99,0.02,1.85,0.07,2.59
		c0.04,0.74,0.19,1.33,0.44,1.78s0.65,0.78,1.21,1.01c0.56,0.22,1.33,0.34,2.32,0.34v1.01h-18.82v-1.01c1.03,0,1.81-0.11,2.35-0.34
		c0.54-0.22,0.93-0.56,1.18-1.01c0.25-0.45,0.39-1.04,0.44-1.78c0.04-0.74,0.07-1.6,0.07-2.59v-20.5c0-0.85-0.16-1.45-0.47-1.78
		C210.96,148.98,210.58,148.81,210.14,148.81z"/>
	<path class="st0" d="M249.87,137.72c0-0.85,0.23-1.68,0.71-2.49c0.47-0.81,1.1-1.54,1.88-2.19c0.78-0.65,1.7-1.17,2.76-1.55
		c1.05-0.38,2.16-0.57,3.33-0.57c0.94,0,1.88,0.13,2.82,0.4c0.94,0.27,1.78,0.68,2.52,1.24c0.74,0.56,1.33,1.27,1.78,2.12
		c0.45,0.85,0.67,1.84,0.67,2.96v23.33l11.9-12.64c0.49-0.54,0.74-1.03,0.74-1.48c0-0.54-0.39-0.86-1.18-0.98
		c-0.79-0.11-1.56-0.17-2.32-0.17v-1.01h10.76v1.01c-1.3,0-2.36,0.25-3.19,0.74c-0.83,0.49-1.6,1.12-2.32,1.88l-6.86,7.39
		l10.22,16.07c0.99,1.48,1.93,2.22,2.82,2.22c0.54,0,1.09-0.2,1.65-0.6s1.13-0.9,1.71-1.48c0,0.94-0.25,1.83-0.74,2.66
		c-0.49,0.83-1.15,1.55-1.98,2.15c-0.83,0.61-1.79,1.08-2.89,1.41c-1.1,0.34-2.25,0.5-3.46,0.5c-1.97,0-3.63-0.49-4.97-1.48
		c-1.34-0.99-2.67-2.51-3.97-4.57l-5.92-9.34v8.34c0,0.99,0.02,1.85,0.07,2.59c0.04,0.74,0.19,1.33,0.44,1.78
		c0.24,0.45,0.65,0.78,1.21,1.01c0.56,0.22,1.33,0.34,2.32,0.34v1.01h-18.82v-1.01c1.03,0,1.81-0.11,2.35-0.34
		c0.54-0.22,0.93-0.56,1.18-1.01s0.39-1.04,0.44-1.78c0.04-0.74,0.07-1.6,0.07-2.59v-33.95c0-0.85-0.16-1.45-0.47-1.78
		c-0.31-0.34-0.7-0.5-1.14-0.5c-0.58,0-1.23,0.21-1.95,0.64C251.3,136.43,250.58,137,249.87,137.72z"/>
</g>
<g id="paw2">
	<g>
		<path class="st0" d="M194.82,133.22c-0.83,0.08-1.66,0.6-1.88,0.74c-1.02,0.65-1.57,1.43-1.7,1.62c-0.51,0.75-0.7,1.42-0.87,2.05
			c-0.13,0.46-0.26,1.11-0.24,1.88c0.01,0.61,0.12,0.9,0.23,1.12c0.04,0.08,0.21,0.38,0.66,0.71c0.35,0.26,0.77,0.46,1.6,0.66
			c0.46,0.11,1.21,0.28,2.26,0.29c0.71,0.01,1.5,0.02,2.46-0.29c0.43-0.14,1.06-0.37,1.68-0.84c0.3-0.23,0.42-0.37,0.45-0.42
			c0.4-0.52,0.42-1.12,0.42-1.59c0-0.16,0-0.77-0.29-1.65c-0.32-0.98-0.8-1.72-1.16-2.2c0,0-0.87-1.15-1.91-1.75
			c-0.21-0.12-0.43-0.19-0.43-0.19s-0.09-0.03-0.19-0.06C195.7,133.24,195.23,133.18,194.82,133.22z"/>
		<path class="st0" d="M203.76,130.44c-0.4-0.3-0.82-0.35-0.94-0.36c-0.97-0.09-1.72,0.65-2.01,0.94c-0.55,0.55-0.79,1.18-0.94,1.55
			c-0.09,0.23-0.17,0.43-0.22,0.7c-0.05,0.29-0.29,1.55,0.51,2.26c0.4,0.35,0.87,0.42,1.07,0.43c0.5,0.03,0.87-0.16,1.22-0.35
			c0.59-0.31,0.94-0.72,1.12-0.95c0.47-0.56,0.66-1.09,0.7-1.21c0.13-0.36,0.4-1.1,0.15-1.95
			C204.36,131.27,204.22,130.79,203.76,130.44z"/>
		<path class="st0" d="M198,125.16c-0.66-0.07-1.16,0.38-1.35,0.55c-0.3,0.27-0.44,0.54-0.65,0.93c-0.32,0.62-0.43,1.16-0.47,1.4
			c-0.07,0.41-0.06,0.72-0.06,0.94c0.01,0.5,0.02,1.14,0.36,1.84c0.18,0.38,0.42,0.89,0.97,1.13c0.29,0.13,0.54,0.13,0.65,0.13
			c0.71,0,1.2-0.44,1.36-0.58c0.39-0.35,0.55-0.72,0.72-1.13c0.06-0.14,0.34-0.79,0.38-1.72c0.02-0.32,0.04-0.84-0.14-1.5
			c-0.1-0.35-0.21-0.76-0.54-1.18C199.02,125.71,198.63,125.22,198,125.16z"/>
		<path class="st0" d="M191.75,125.26c-0.53,0.07-0.87,0.4-0.99,0.52c-0.32,0.32-0.42,0.64-0.61,1.23
			c-0.08,0.25-0.21,0.67-0.26,1.25c-0.05,0.64,0.04,1.18,0.13,1.55c0.11,0.43,0.22,0.91,0.6,1.39c0.14,0.18,0.39,0.49,0.83,0.71
			c0.19,0.09,0.55,0.28,1.02,0.23c0.64-0.07,1.02-0.51,1.2-0.71c0.37-0.43,0.49-0.87,0.58-1.23c0.13-0.51,0.12-0.92,0.11-1.34
			c-0.01-0.25-0.02-0.67-0.14-1.2c-0.08-0.35-0.18-0.74-0.44-1.18c-0.11-0.19-0.29-0.48-0.63-0.76c-0.15-0.12-0.39-0.31-0.74-0.4
			C192.07,125.22,191.81,125.25,191.75,125.26z"/>
		<path class="st0" d="M185.86,130.75c-0.18,0.22-0.26,0.43-0.3,0.54c-0.03,0.07-0.14,0.37-0.15,0.83
			c-0.01,0.59,0.14,1.03,0.25,1.33c0.2,0.56,0.47,0.93,0.56,1.05c0.3,0.4,0.61,0.66,0.78,0.79c0.3,0.23,0.69,0.53,1.26,0.63
			c0.23,0.04,0.59,0.1,1-0.05c0.09-0.03,0.42-0.16,0.71-0.5c0.29-0.34,0.36-0.7,0.42-0.99c0.14-0.67,0-1.22-0.06-1.44
			c-0.1-0.38-0.25-0.65-0.37-0.87c-0.15-0.27-0.36-0.65-0.78-1.04c-0.44-0.41-0.88-0.6-1.1-0.7c-0.21-0.09-0.38-0.16-0.62-0.19
			c-0.19-0.03-0.58-0.08-0.99,0.11C186.13,130.41,185.95,130.64,185.86,130.75z"/>
	</g>
</g>
</svg>
