<svg width="40" height="40" viewBox="0 0 40 40" fill="none" xmlns="http://www.w3.org/2000/svg">
<rect width="40" height="40" rx="20" fill="white"/>
<path fill-rule="evenodd" clip-rule="evenodd" d="M32.3394 20.2919C32.3394 19.3701 32.2566 18.4837 32.103 17.6328H19.8594V22.6614H26.8557C26.5544 24.2864 25.6385 25.6633 24.2616 26.5851V29.8469H28.463C30.9212 27.5837 32.3394 24.251 32.3394 20.2919Z" fill="#4285F4"/>
<path fill-rule="evenodd" clip-rule="evenodd" d="M19.8595 32.9987C23.3695 32.9987 26.3122 31.8347 28.4631 29.8492L24.2617 26.5874C23.0976 27.3674 21.6085 27.8283 19.8595 27.8283C16.4735 27.8283 13.6076 25.5415 12.5854 22.4688H8.24219V25.8369C10.3813 30.0856 14.7776 32.9987 19.8595 32.9987Z" fill="#34A853"/>
<path fill-rule="evenodd" clip-rule="evenodd" d="M12.5853 22.4722C12.3253 21.6922 12.1776 20.8591 12.1776 20.0022C12.1776 19.1454 12.3253 18.3122 12.5853 17.5322V14.1641H8.2421C7.36165 15.9191 6.85938 17.9045 6.85938 20.0022C6.85938 22.1 7.36165 24.0854 8.2421 25.8404L12.5853 22.4722Z" fill="#FBBC05"/>
<path fill-rule="evenodd" clip-rule="evenodd" d="M19.8595 12.1705C21.7681 12.1705 23.4817 12.8264 24.829 14.1145L28.5576 10.3859C26.3063 8.28818 23.3635 7 19.8595 7C14.7776 7 10.3813 9.91318 8.24219 14.1618L12.5854 17.53C13.6076 14.4573 16.4735 12.1705 19.8595 12.1705Z" fill="#EA4335"/>
</svg>
