<svg width="40" height="40" viewBox="0 0 40 40" fill="none" xmlns="http://www.w3.org/2000/svg">
<circle cx="20" cy="20" r="20" fill="#FEE500"/>
<path d="M20.0608 9.65625C13.8384 9.65625 8.82031 13.6707 8.82031 18.5442C8.82031 21.7076 10.9078 24.4776 14.0391 26.0593L12.9793 30.0176C12.9593 30.0769 12.9562 30.1406 12.9704 30.2016C12.9846 30.2625 13.0155 30.3184 13.0596 30.3628C13.1239 30.4195 13.2067 30.4509 13.2924 30.4511C13.3635 30.4454 13.431 30.4173 13.4851 30.3708L18.0455 27.2958C18.7187 27.3887 19.3973 27.4369 20.0769 27.4402C26.2913 27.4402 31.3174 23.4258 31.3174 18.5442C31.3174 13.6626 26.2752 9.65625 20.0608 9.65625Z" fill="#392020"/>
<path d="M12.7569 17.1406H11.5285C11.3762 17.145 11.2259 17.106 11.0949 17.0282C11.0368 16.9918 10.9868 16.9437 10.9481 16.8871C10.9094 16.8304 10.8829 16.7664 10.8701 16.699C10.8662 16.6562 10.8662 16.6133 10.8701 16.5706C10.8663 16.4906 10.8818 16.4109 10.9154 16.3382C10.9489 16.2655 10.9995 16.202 11.0628 16.1531C11.2028 16.0517 11.3717 15.9981 11.5445 16.0005H15.2459C15.3993 15.9951 15.5507 16.0371 15.6794 16.1209C15.7389 16.1557 15.79 16.2034 15.8288 16.2603C15.8677 16.3172 15.8935 16.382 15.9042 16.4501C15.9082 16.4902 15.9082 16.5305 15.9042 16.5706C15.908 16.6517 15.8925 16.7325 15.8591 16.8065C15.8256 16.8805 15.775 16.9454 15.7116 16.996C15.575 17.0973 15.4077 17.1484 15.2378 17.1406H14.0496V21.3638C14.0544 21.4538 14.0405 21.5438 14.0087 21.6281C13.9769 21.7124 13.9279 21.7892 13.8649 21.8536C13.8045 21.9152 13.7318 21.9634 13.6516 21.9952C13.5714 22.027 13.4854 22.0416 13.3992 22.0382C13.2484 22.0425 13.1008 21.9943 12.9817 21.9018C12.8683 21.8114 12.7913 21.6831 12.7649 21.5404C12.757 21.4818 12.757 21.4224 12.7649 21.3638L12.7569 17.1406Z" fill="#FEE500"/>
<path d="M16.2539 16.3089C16.2892 16.1768 16.3722 16.0624 16.4868 15.9877C16.6089 15.9185 16.748 15.8851 16.8882 15.8914H17.1933C17.3421 15.886 17.4894 15.9222 17.6188 15.9957C17.756 16.088 17.8534 16.2284 17.8918 16.3892L19.4976 20.9255C19.5392 21.0439 19.5741 21.1646 19.602 21.2869C19.6047 21.3377 19.6047 21.3886 19.602 21.4394C19.6047 21.5176 19.5903 21.5955 19.5598 21.6676C19.5293 21.7398 19.4834 21.8044 19.4253 21.8569C19.3691 21.9146 19.3016 21.96 19.227 21.9904C19.1524 22.0208 19.0723 22.0354 18.9918 22.0335C18.8679 22.0458 18.7436 22.0161 18.6387 21.9491C18.5338 21.8821 18.4546 21.7818 18.4137 21.6642L18.0765 20.6767H15.9649L15.6277 21.6642C15.5878 21.7841 15.5076 21.8864 15.4007 21.9537C15.2938 22.0211 15.1669 22.0493 15.0415 22.0335C14.9058 22.0371 14.7728 21.9946 14.6642 21.9131C14.5584 21.8289 14.487 21.709 14.4635 21.5759C14.4592 21.5305 14.4592 21.4848 14.4635 21.4394C14.4497 21.3597 14.4497 21.2783 14.4635 21.1986C14.4635 21.1103 14.5197 21.0138 14.5518 20.9255L16.2539 16.3089ZM17.0568 17.3607L16.2941 19.7694H17.8115L17.0568 17.3607Z" fill="#FEE500"/>
<path d="M19.7898 16.5658C19.7816 16.3856 19.8451 16.2095 19.9664 16.076C20.0281 16.0139 20.1021 15.9652 20.1837 15.9334C20.2653 15.9016 20.3526 15.8872 20.4401 15.8913C20.5905 15.8895 20.7373 15.9376 20.8576 16.0278C20.9691 16.122 21.0432 16.253 21.0664 16.3971C21.0743 16.453 21.0743 16.5099 21.0664 16.5658V20.789H23.2743C23.4274 20.787 23.5778 20.8287 23.7079 20.9094C23.7663 20.9454 23.8166 20.9934 23.8553 21.0501C23.894 21.1068 23.9204 21.171 23.9327 21.2386C23.9327 21.2386 23.9327 21.3189 23.9327 21.359C23.9365 21.439 23.921 21.5186 23.8874 21.5913C23.8539 21.664 23.8033 21.7276 23.74 21.7766C23.6 21.8779 23.4311 21.9314 23.2583 21.9291H20.5445C20.3716 21.9402 20.1998 21.8952 20.0547 21.8007C19.9249 21.7036 19.8384 21.5594 19.8138 21.3992C19.808 21.311 19.808 21.2224 19.8138 21.1342L19.7898 16.5658Z" fill="#FEE500"/>
<path d="M24.0776 16.573C24.0728 16.3934 24.1358 16.2185 24.2542 16.0833C24.3745 15.9739 24.5289 15.9094 24.6912 15.9006C24.8536 15.8918 25.014 15.9393 25.1454 16.0351C25.2594 16.1284 25.3362 16.2594 25.3622 16.4044C25.3662 16.4605 25.3662 16.5169 25.3622 16.573V18.5401L27.3935 16.1956C27.4718 16.1156 27.5549 16.0406 27.6424 15.9709C27.7249 15.9218 27.8194 15.8967 27.9154 15.8985C28.0557 15.8978 28.1929 15.9398 28.3088 16.019C28.3634 16.0557 28.41 16.1032 28.4459 16.1584C28.4817 16.2135 28.5061 16.2754 28.5176 16.3402C28.5208 16.3561 28.5208 16.3725 28.5176 16.3884C28.5137 16.4069 28.5137 16.426 28.5176 16.4445C28.5173 16.529 28.4952 16.612 28.4533 16.6855C28.4107 16.7632 28.3596 16.8358 28.3008 16.9022L26.968 18.3635L28.5738 20.8524V20.9327C28.6571 21.0477 28.7221 21.1751 28.7665 21.3101V21.3502C28.7757 21.4432 28.7623 21.5372 28.7274 21.6239C28.6924 21.7106 28.6369 21.7874 28.5657 21.848C28.4318 21.9492 28.2679 22.003 28.1001 22.0006C27.9885 22.0052 27.8777 21.9802 27.7789 21.9283C27.672 21.8566 27.5838 21.7602 27.522 21.6473L26.0286 19.2386L25.314 19.9853V21.3261C25.3188 21.5058 25.2558 21.6806 25.1374 21.8159C25.0739 21.8779 24.9985 21.9263 24.9156 21.9581C24.8328 21.9898 24.7443 22.0043 24.6556 22.0006C24.5075 22.0037 24.3628 21.9554 24.2462 21.8641C24.1328 21.7737 24.0558 21.6454 24.0294 21.5028C24.0215 21.4442 24.0215 21.3847 24.0294 21.3261L24.0776 16.573Z" fill="#FEE500"/>
</svg>
