<svg width="27" height="20" viewBox="0 0 27 20" fill="none" xmlns="http://www.w3.org/2000/svg">
<path fill-rule="evenodd" clip-rule="evenodd" d="M26.1821 3.33333V16.6667C26.1821 18.5025 24.6193 20 22.7034 20H4.15054C2.23462 20 0.671875 18.5025 0.671875 16.6667V3.33333C0.671875 1.49238 2.22933 0 4.15054 0H22.7034C24.6246 0 26.1821 1.49238 26.1821 3.33333ZM3.11457 2.83772C3.30633 2.47436 3.70068 2.22222 4.15054 2.22222H22.7034C23.1533 2.22222 23.5476 2.47436 23.7394 2.83772L13.427 9.75483L3.11457 2.83772ZM2.99098 5.4674L12.0971 11.5753C12.8956 12.111 13.9584 12.111 14.7569 11.5753L23.863 5.46739V16.6667C23.863 17.2752 23.3385 17.7778 22.7034 17.7778H4.15054C3.51543 17.7778 2.99098 17.2752 2.99098 16.6667V5.4674Z" fill="black"/>
</svg>
