<svg width="27" height="26" viewBox="0 0 27 26" fill="none" xmlns="http://www.w3.org/2000/svg">
<path fill-rule="evenodd" clip-rule="evenodd" d="M26.6722 13.2919C26.6722 12.3701 26.5878 11.4837 26.431 10.6328H13.9375V15.6614H21.0766C20.7691 17.2864 19.8345 18.6633 18.4296 19.5851V22.8469H22.7167C25.2251 20.5837 26.6722 17.251 26.6722 13.2919Z" fill="#4285F4"/>
<path fill-rule="evenodd" clip-rule="evenodd" d="M13.9403 25.9987C17.5219 25.9987 20.5247 24.8347 22.7195 22.8492L18.4324 19.5874C17.2446 20.3674 15.7251 20.8283 13.9403 20.8283C10.4853 20.8283 7.56089 18.5415 6.51775 15.4688H2.08594V18.8369C4.26868 23.0856 8.75477 25.9987 13.9403 25.9987Z" fill="#34A853"/>
<path fill-rule="evenodd" clip-rule="evenodd" d="M6.51464 15.4722C6.24933 14.6922 6.09859 13.8591 6.09859 13.0022C6.09859 12.1454 6.24933 11.3122 6.51464 10.5322V7.16406H2.08282C1.1844 8.91906 0.671875 10.9045 0.671875 13.0022C0.671875 15.1 1.1844 17.0854 2.08282 18.8404L6.51464 15.4722Z" fill="#FBBC05"/>
<path fill-rule="evenodd" clip-rule="evenodd" d="M13.9403 5.17045C15.8879 5.17045 17.6365 5.82636 19.0113 7.11454L22.816 3.38591C20.5187 1.28818 17.5159 0 13.9403 0C8.75477 0 4.26868 2.91318 2.08594 7.16182L6.51775 10.53C7.56089 7.45727 10.4853 5.17045 13.9403 5.17045Z" fill="#EA4335"/>
</svg>
