<svg width="27" height="24" viewBox="0 0 27 24" fill="none" xmlns="http://www.w3.org/2000/svg">
<path d="M13.4804 0C6.42455 0 0.734375 4.46105 0.734375 9.87683C0.734375 13.3922 3.10149 16.4703 6.65216 18.228L5.4504 22.6267C5.42774 22.6926 5.42425 22.7634 5.44033 22.8311C5.45641 22.8989 5.49142 22.9609 5.54144 23.0103C5.61437 23.0733 5.70822 23.1082 5.80546 23.1084C5.88609 23.1021 5.96259 23.0708 6.02396 23.0192L11.1952 19.602C11.9585 19.7053 12.728 19.7589 13.4986 19.7626C20.5453 19.7626 26.2446 15.3015 26.2446 9.87683C26.2446 4.45213 20.5271 0 13.4804 0Z" fill="#392020"/>
</svg>
